<?xml version="1.0" encoding="utf-8"?>
<!-- Generator: Adobe Illustrator 23.1.1, SVG Export Plug-In . SVG Version: 6.00 Build 0)  -->
<svg version="1.1" id="Layer_1" xmlns="http://www.w3.org/2000/svg" xmlns:xlink="http://www.w3.org/1999/xlink" x="0px" y="0px"
	 viewBox="0 0 38.55 57.63" style="enable-background:new 0 0 38.55 57.63;" xml:space="preserve">
<style type="text/css">
	.st0{fill:#F2D027;}
	.st1{opacity:0.6;fill:#F29422;}
	.st2{fill:#F2BF27;}
	.st3{opacity:0.29;fill:#E6E6E6;}
	.st4{opacity:0.51;fill:#F2F2F2;}
</style>
<path class="st0" d="M19.27,0L2.36,29.11l0.01,0C0.86,31.86,0,35,0,38.36C0,49,8.63,57.63,19.27,57.63S38.39,49,38.55,38.36
	c0.05-3.47-0.84-6.71-2.41-9.51L19.27,0z"/>
<path class="st1" d="M19.27,0L2.36,29.11l0.01,0C0.86,31.86,0,35,0,38.36C0,49,8.63,57.63,19.27,57.63S38.39,49,38.55,38.36
	c0.05-3.47-0.84-6.71-2.41-9.51L19.27,0z"/>
<path d="M21.77,53.98"/>
<path class="st2" d="M10.04,41.01c4.68-11.2,13.34-18.82,21.55-19.94L19.27,0L2.36,29.11l0.01,0C0.86,31.86,0,35,0,38.36
	c0,5.98,2.72,11.32,6.99,14.85C7.32,49.27,8.32,45.12,10.04,41.01z"/>
<circle class="st3" cx="18.84" cy="51.52" r="1.05"/>
<circle class="st3" cx="23.49" cy="42.63" r="0.63"/>
<circle class="st3" cx="10.96" cy="32.96" r="0.31"/>
<circle class="st3" cx="9.91" cy="47.05" r="0.63"/>
<circle class="st3" cx="30.91" cy="46.05" r="0.31"/>
<circle class="st3" cx="17.91" cy="39.05" r="0.31"/>
<circle class="st3" cx="13.91" cy="20.05" r="0.31"/>
<circle class="st3" cx="14.99" cy="21.76" r="0.63"/>
<circle class="st3" cx="22.99" cy="16.76" r="0.31"/>
<circle class="st4" cx="6.28" cy="39.36" r="0.46"/>
</svg>
